<svg width="16" height="16" viewBox="0 0 16 16" fill="none" xmlns="http://www.w3.org/2000/svg">
<path d="M7.5 3.00033V0.666992H8.5V3.00033H7.5Z" fill="#9E9E9E"/>
<path fill-rule="evenodd" clip-rule="evenodd" d="M3.66699 8.33333C3.66699 7.18406 4.12354 6.08186 4.9362 5.2692C5.74885 4.45655 6.85105 4 8.00033 4C9.1496 4 10.2518 4.45655 11.0645 5.2692C11.8771 6.08186 12.3337 7.18406 12.3337 8.33333V10.96L12.797 11.4227C13.1406 11.7664 13.3336 12.2326 13.3337 12.7187V14.6667H2.66699V12.7187C2.66699 12.2327 2.86033 11.7667 3.20366 11.4227L3.66699 10.9593V8.33333ZM4.37366 11.6667L3.91099 12.13C3.75488 12.2861 3.66713 12.4979 3.66699 12.7187V13.6667H12.3337V12.7187C12.3335 12.4979 12.2458 12.2861 12.0897 12.13L11.6263 11.6667H4.37366ZM8.00033 5C7.11627 5 6.26842 5.35119 5.6433 5.97631C5.01818 6.60143 4.66699 7.44928 4.66699 8.33333V10.6667H11.3337V8.33333C11.3337 7.44928 10.9825 6.60143 10.3573 5.97631C9.73223 5.35119 8.88438 5 8.00033 5Z" fill="#9E9E9E"/>
<path d="M12.187 4.8538L13.8537 3.18714L13.147 2.48047L11.4803 4.14714L12.187 4.8538ZM15.3337 8.66714H13.3337V7.66714H15.3337V8.66714ZM0.666992 8.66714H2.66699V7.66714H0.666992V8.66714ZM3.69699 4.8838L2.03033 3.21714L2.73699 2.51047L4.40366 4.17714L3.69699 4.8838Z" fill="#9E9E9E"/>
</svg>
